# xmcd CD database file
#
# Track frame offsets:
#	150
#	17842
#	35995
#	50211
#	64093
#	89891
#	109411
#	121879
#	140928
#
# Disc length: 2091 seconds
#
# Revision: 0
# Processed by: cddbd v1.5.1PL0 Copyright (c) Steve Scherf et al.
# Submitted via: CDex 1.51
#
DISCID=94082909
DTITLE=Own Rendition - Limited Edition
DYEAR=2005
DGENRE=Blues
TTITLE0=Lotto
TTITLE1=Kiss
TTITLE2=Ain't No Sunshine
TTITLE3=Honey Hush
TTITLE4=Voodoo Chile
TTITLE5=Fool for Your Stockings
TTITLE6=Got My Mo Jo Working
TTITLE7=Give Me One Reason
TTITLE8=My Baby
EXTD=YEAR: 2005
EXTT0=
EXTT1=
EXTT2=
EXTT3=
EXTT4=
EXTT5=
EXTT6=
EXTT7=
EXTT8=
PLAYORDER=
